<!-- created by svgstack.com | Attribution is required. --><svg width="128" height="128" viewBox="0 0 128 128" fill="none" xmlns="http://www.w3.org/2000/svg"><path fill-rule="evenodd" clip-rule="evenodd" d="M47.5196 73.1589C50.0397 73.1589 55.0527 73.0168 61.982 70.0922C70.0566 66.6832 86.1222 60.4955 97.7108 54.1396C105.816 49.6942 109.369 43.8148 109.369 35.8971C109.369 24.9083 100.681 16 89.9631 16H45.0589C29.6645 16 17.1851 28.7954 17.1851 44.5795C17.1851 60.3635 28.8696 73.1589 47.5196 73.1589Z" fill="black"/><path fill-rule="evenodd" clip-rule="evenodd" d="M55.1165 92.8517C55.1165 85.1146 59.6593 78.1388 66.6291 75.1729L80.7703 69.1556C95.0743 63.0687 110.818 73.8466 110.818 89.7255C110.818 102.028 101.09 112 89.0907 111.997L73.7801 111.993C63.4716 111.99 55.1165 103.421 55.1165 92.8517Z" fill="black"/><path d="M33.2535 76.9187C24.3793 76.9187 17.1851 84.2949 17.1851 93.3937V95.5278C17.1851 104.627 24.379 112.002 33.2532 112.002C42.1274 112.002 49.3217 104.627 49.3217 95.5278V93.3937C49.3217 84.2949 42.1277 76.9187 33.2535 76.9187Z" fill="black"/></svg> 