<svg xmlns="http://www.w3.org/2000/svg" xmlns:xlink="http://www.w3.org/1999/xlink" width="2000" zoomAndPan="magnify" viewBox="0 0 1500 1499.999933" height="2000" preserveAspectRatio="xMidYMid meet" version="1.0"><defs><clipPath id="90574e800c"><path d="M 119.105469 119.105469 L 1380.605469 119.105469 L 1380.605469 1380.605469 L 119.105469 1380.605469 Z M 119.105469 119.105469 " clip-rule="nonzero"/></clipPath><clipPath id="3d439dc642"><path d="M 195.886719 150 L 1304.113281 150 L 1304.113281 1316 L 195.886719 1316 Z M 195.886719 150 " clip-rule="nonzero"/></clipPath><clipPath id="47db71b7a4"><path d="M 750 150 L 792.625 599.683594 L 1093.125 260.824219 L 862.953125 650.832031 L 1304.113281 552.796875 L 888.527344 731.820312 L 1304.113281 912.972656 L 862.953125 814.9375 L 1093.125 1204.945312 L 792.625 863.953125 L 750 1315.769531 L 707.375 863.953125 L 406.875 1204.945312 L 637.046875 814.9375 L 195.886719 912.972656 L 611.472656 731.820312 L 195.886719 552.796875 L 637.046875 650.832031 L 406.875 260.824219 L 707.375 599.683594 Z M 750 150 " clip-rule="nonzero"/></clipPath><clipPath id="294112a241"><path d="M 0.886719 0 L 1109.113281 0 L 1109.113281 1165.917969 L 0.886719 1165.917969 Z M 0.886719 0 " clip-rule="nonzero"/></clipPath><clipPath id="91b56ca0c7"><path d="M 555 0 L 597.625 449.683594 L 898.125 110.824219 L 667.953125 500.832031 L 1109.113281 402.796875 L 693.527344 581.820312 L 1109.113281 762.972656 L 667.953125 664.9375 L 898.125 1054.945312 L 597.625 713.953125 L 555 1165.769531 L 512.375 713.953125 L 211.875 1054.945312 L 442.046875 664.9375 L 0.886719 762.972656 L 416.472656 581.820312 L 0.886719 402.796875 L 442.046875 500.832031 L 211.875 110.824219 L 512.375 449.683594 Z M 555 0 " clip-rule="nonzero"/></clipPath><clipPath id="fab4306319"><rect x="0" width="1110" y="0" height="1166"/></clipPath><clipPath id="dbd6e82ba1"><path d="M 497.324219 497.324219 L 1002.675781 497.324219 L 1002.675781 1002.675781 L 497.324219 1002.675781 Z M 497.324219 497.324219 " clip-rule="nonzero"/></clipPath><clipPath id="b2ca37fc4f"><path d="M 750 497.324219 L 774.511719 518.058594 L 802.824219 502.847656 L 822.464844 528.195312 L 853.339844 519.171875 L 867.25 548.027344 L 899.335938 545.582031 L 906.914062 576.683594 L 938.808594 580.925781 L 939.71875 612.917969 L 970.027344 623.664062 L 964.230469 655.140625 L 991.632812 671.917969 L 979.378906 701.511719 L 1002.675781 723.589844 L 984.503906 750 L 1002.675781 776.410156 L 979.378906 798.488281 L 991.632812 828.082031 L 964.230469 844.859375 L 970.027344 876.335938 L 939.71875 887.082031 L 938.808594 919.074219 L 906.914062 923.316406 L 899.335938 954.417969 L 867.25 951.972656 L 853.339844 980.832031 L 822.464844 971.804688 L 802.824219 997.152344 L 774.511719 981.941406 L 750 1002.675781 L 725.488281 981.941406 L 697.175781 997.152344 L 677.535156 971.804688 L 646.660156 980.832031 L 632.75 951.972656 L 600.664062 954.417969 L 593.085938 923.316406 L 561.191406 919.074219 L 560.28125 887.082031 L 529.972656 876.335938 L 535.769531 844.859375 L 508.367188 828.082031 L 520.621094 798.488281 L 497.324219 776.410156 L 515.496094 750 L 497.324219 723.589844 L 520.621094 701.511719 L 508.367188 671.917969 L 535.769531 655.140625 L 529.972656 623.664062 L 560.28125 612.917969 L 561.191406 580.925781 L 593.085938 576.683594 L 600.664062 545.582031 L 632.75 548.027344 L 646.660156 519.171875 L 677.535156 528.195312 L 697.175781 502.847656 L 725.488281 518.058594 Z M 750 497.324219 " clip-rule="nonzero"/></clipPath><clipPath id="1a97adfc2a"><path d="M 0.324219 0.324219 L 505.675781 0.324219 L 505.675781 505.675781 L 0.324219 505.675781 Z M 0.324219 0.324219 " clip-rule="nonzero"/></clipPath><clipPath id="868d582ffa"><path d="M 253 0.324219 L 277.511719 21.058594 L 305.824219 5.847656 L 325.464844 31.195312 L 356.339844 22.171875 L 370.25 51.027344 L 402.335938 48.582031 L 409.914062 79.683594 L 441.808594 83.925781 L 442.71875 115.917969 L 473.027344 126.664062 L 467.230469 158.140625 L 494.632812 174.917969 L 482.378906 204.511719 L 505.675781 226.589844 L 487.503906 253 L 505.675781 279.410156 L 482.378906 301.488281 L 494.632812 331.082031 L 467.230469 347.859375 L 473.027344 379.335938 L 442.71875 390.082031 L 441.808594 422.074219 L 409.914062 426.316406 L 402.335938 457.417969 L 370.25 454.972656 L 356.339844 483.832031 L 325.464844 474.804688 L 305.824219 500.152344 L 277.511719 484.941406 L 253 505.675781 L 228.488281 484.941406 L 200.175781 500.152344 L 180.535156 474.804688 L 149.660156 483.832031 L 135.75 454.972656 L 103.664062 457.417969 L 96.085938 426.316406 L 64.191406 422.074219 L 63.28125 390.082031 L 32.972656 379.335938 L 38.769531 347.859375 L 11.367188 331.082031 L 23.621094 301.488281 L 0.324219 279.410156 L 18.496094 253 L 0.324219 226.589844 L 23.621094 204.511719 L 11.367188 174.917969 L 38.769531 158.140625 L 32.972656 126.664062 L 63.28125 115.917969 L 64.191406 83.925781 L 96.085938 79.683594 L 103.664062 48.582031 L 135.75 51.027344 L 149.660156 22.171875 L 180.535156 31.195312 L 200.175781 5.847656 L 228.488281 21.058594 Z M 253 0.324219 " clip-rule="nonzero"/></clipPath><clipPath id="8f14ac0bce"><rect x="0" width="506" y="0" height="506"/></clipPath><clipPath id="dcb0d17d84"><path d="M 578.847656 578.847656 L 921.152344 578.847656 L 921.152344 921.152344 L 578.847656 921.152344 Z M 578.847656 578.847656 " clip-rule="nonzero"/></clipPath><clipPath id="7c4bc34a1d"><path d="M 750 578.847656 L 766.605469 592.890625 L 785.78125 582.585938 L 799.085938 599.757812 L 819.996094 593.644531 L 829.421875 613.191406 L 851.15625 611.535156 L 856.289062 632.601562 L 877.890625 635.476562 L 878.507812 657.144531 L 899.039062 664.421875 L 895.113281 685.746094 L 913.671875 697.109375 L 905.375 717.15625 L 921.152344 732.109375 L 908.84375 750 L 921.152344 767.890625 L 905.375 782.84375 L 913.671875 802.890625 L 895.113281 814.253906 L 899.039062 835.578125 L 878.507812 842.855469 L 877.890625 864.523438 L 856.289062 867.398438 L 851.15625 888.464844 L 829.421875 886.808594 L 819.996094 906.355469 L 799.085938 900.242188 L 785.78125 917.414062 L 766.605469 907.109375 L 750 921.152344 L 733.394531 907.109375 L 714.21875 917.414062 L 700.914062 900.242188 L 680.003906 906.355469 L 670.578125 886.808594 L 648.84375 888.464844 L 643.710938 867.398438 L 622.109375 864.523438 L 621.492188 842.855469 L 600.960938 835.578125 L 604.886719 814.253906 L 586.328125 802.890625 L 594.625 782.84375 L 578.847656 767.890625 L 591.15625 750 L 578.847656 732.109375 L 594.625 717.15625 L 586.328125 697.109375 L 604.886719 685.746094 L 600.960938 664.421875 L 621.492188 657.144531 L 622.109375 635.476562 L 643.710938 632.601562 L 648.84375 611.535156 L 670.578125 613.191406 L 680.003906 593.644531 L 700.914062 599.757812 L 714.21875 582.585938 L 733.394531 592.890625 Z M 750 578.847656 " clip-rule="nonzero"/></clipPath><clipPath id="8d1268cbb3"><path d="M 0.847656 0.847656 L 343.152344 0.847656 L 343.152344 343.152344 L 0.847656 343.152344 Z M 0.847656 0.847656 " clip-rule="nonzero"/></clipPath><clipPath id="74997e7888"><path d="M 172 0.847656 L 188.605469 14.890625 L 207.78125 4.585938 L 221.085938 21.757812 L 241.996094 15.644531 L 251.421875 35.191406 L 273.15625 33.535156 L 278.289062 54.601562 L 299.890625 57.476562 L 300.507812 79.144531 L 321.039062 86.421875 L 317.113281 107.746094 L 335.671875 119.109375 L 327.375 139.15625 L 343.152344 154.109375 L 330.84375 172 L 343.152344 189.890625 L 327.375 204.84375 L 335.671875 224.890625 L 317.113281 236.253906 L 321.039062 257.578125 L 300.507812 264.855469 L 299.890625 286.523438 L 278.289062 289.398438 L 273.15625 310.464844 L 251.421875 308.808594 L 241.996094 328.355469 L 221.085938 322.242188 L 207.78125 339.414062 L 188.605469 329.109375 L 172 343.152344 L 155.394531 329.109375 L 136.21875 339.414062 L 122.914062 322.242188 L 102.003906 328.355469 L 92.578125 308.808594 L 70.84375 310.464844 L 65.710938 289.398438 L 44.109375 286.523438 L 43.492188 264.855469 L 22.960938 257.578125 L 26.886719 236.253906 L 8.328125 224.890625 L 16.625 204.84375 L 0.847656 189.890625 L 13.15625 172 L 0.847656 154.109375 L 16.625 139.15625 L 8.328125 119.109375 L 26.886719 107.746094 L 22.960938 86.421875 L 43.492188 79.144531 L 44.109375 57.476562 L 65.710938 54.601562 L 70.84375 33.535156 L 92.578125 35.191406 L 102.003906 15.644531 L 122.914062 21.757812 L 136.21875 4.585938 L 155.394531 14.890625 Z M 172 0.847656 " clip-rule="nonzero"/></clipPath><clipPath id="09cd6089f2"><rect x="0" width="344" y="0" height="344"/></clipPath><clipPath id="e2968f4aa4"><path d="M 634.429688 634.429688 L 865.570312 634.429688 L 865.570312 865.570312 L 634.429688 865.570312 Z M 634.429688 634.429688 " clip-rule="nonzero"/></clipPath><clipPath id="60eb0caf36"><path d="M 750 634.429688 L 761.210938 643.914062 L 774.160156 636.957031 L 783.144531 648.550781 L 797.265625 644.421875 L 803.628906 657.621094 L 818.304688 656.5 L 821.769531 670.726562 L 836.359375 672.667969 L 836.773438 687.300781 L 850.636719 692.214844 L 847.984375 706.613281 L 860.519531 714.285156 L 854.914062 727.820312 L 865.570312 737.917969 L 857.257812 750 L 865.570312 762.082031 L 854.914062 772.179688 L 860.519531 785.710938 L 847.984375 793.386719 L 850.636719 807.785156 L 836.773438 812.699219 L 836.359375 827.332031 L 821.769531 829.273438 L 818.304688 843.496094 L 803.628906 842.378906 L 797.265625 855.578125 L 783.144531 851.449219 L 774.160156 863.042969 L 761.210938 856.085938 L 750 865.570312 L 738.789062 856.085938 L 725.839844 863.042969 L 716.855469 851.449219 L 702.734375 855.578125 L 696.371094 842.378906 L 681.695312 843.496094 L 678.230469 829.273438 L 663.640625 827.332031 L 663.226562 812.699219 L 649.363281 807.785156 L 652.015625 793.386719 L 639.480469 785.710938 L 645.085938 772.179688 L 634.429688 762.082031 L 642.742188 750 L 634.429688 737.917969 L 645.085938 727.820312 L 639.480469 714.285156 L 652.015625 706.613281 L 649.363281 692.214844 L 663.226562 687.300781 L 663.640625 672.667969 L 678.230469 670.726562 L 681.695312 656.5 L 696.371094 657.621094 L 702.734375 644.421875 L 716.855469 648.550781 L 725.839844 636.957031 L 738.789062 643.914062 Z M 750 634.429688 " clip-rule="nonzero"/></clipPath><clipPath id="55eeb0d4d5"><path d="M 0.429688 0.429688 L 231.570312 0.429688 L 231.570312 231.570312 L 0.429688 231.570312 Z M 0.429688 0.429688 " clip-rule="nonzero"/></clipPath><clipPath id="e4a873949c"><path d="M 116 0.429688 L 127.210938 9.914062 L 140.160156 2.957031 L 149.144531 14.550781 L 163.265625 10.421875 L 169.628906 23.621094 L 184.304688 22.5 L 187.769531 36.726562 L 202.359375 38.667969 L 202.773438 53.300781 L 216.636719 58.214844 L 213.984375 72.613281 L 226.519531 80.285156 L 220.914062 93.820312 L 231.570312 103.917969 L 223.257812 116 L 231.570312 128.082031 L 220.914062 138.179688 L 226.519531 151.710938 L 213.984375 159.386719 L 216.636719 173.785156 L 202.773438 178.699219 L 202.359375 193.332031 L 187.769531 195.273438 L 184.304688 209.496094 L 169.628906 208.378906 L 163.265625 221.578125 L 149.144531 217.449219 L 140.160156 229.042969 L 127.210938 222.085938 L 116 231.570312 L 104.789062 222.085938 L 91.839844 229.042969 L 82.855469 217.449219 L 68.734375 221.578125 L 62.371094 208.378906 L 47.695312 209.496094 L 44.230469 195.273438 L 29.640625 193.332031 L 29.226562 178.699219 L 15.363281 173.785156 L 18.015625 159.386719 L 5.480469 151.710938 L 11.085938 138.179688 L 0.429688 128.082031 L 8.742188 116 L 0.429688 103.917969 L 11.085938 93.820312 L 5.480469 80.285156 L 18.015625 72.613281 L 15.363281 58.214844 L 29.226562 53.300781 L 29.640625 38.667969 L 44.230469 36.726562 L 47.695312 22.5 L 62.371094 23.621094 L 68.734375 10.421875 L 82.855469 14.550781 L 91.839844 2.957031 L 104.789062 9.914062 Z M 116 0.429688 " clip-rule="nonzero"/></clipPath><clipPath id="03a9f9a3cf"><rect x="0" width="232" y="0" height="232"/></clipPath><clipPath id="198d76d0ac"><path d="M 537.273438 525 L 962.726562 525 L 962.726562 973 L 537.273438 973 Z M 537.273438 525 " clip-rule="nonzero"/></clipPath><clipPath id="4e40a8c1cf"><path d="M 750 525 L 766.363281 697.636719 L 881.726562 567.546875 L 793.363281 717.273438 L 962.726562 679.636719 L 803.183594 748.363281 L 962.726562 817.910156 L 793.363281 780.273438 L 881.726562 930 L 766.363281 799.089844 L 750 972.546875 L 733.636719 799.089844 L 618.273438 930 L 706.636719 780.273438 L 537.273438 817.910156 L 696.816406 748.363281 L 537.273438 679.636719 L 706.636719 717.273438 L 618.273438 567.546875 L 733.636719 697.636719 Z M 750 525 " clip-rule="nonzero"/></clipPath><clipPath id="cd3cf4be36"><path d="M 0.273438 0 L 425.726562 0 L 425.726562 447.71875 L 0.273438 447.71875 Z M 0.273438 0 " clip-rule="nonzero"/></clipPath><clipPath id="5739f2372f"><path d="M 213 0 L 229.363281 172.636719 L 344.726562 42.546875 L 256.363281 192.273438 L 425.726562 154.636719 L 266.183594 223.363281 L 425.726562 292.910156 L 256.363281 255.273438 L 344.726562 405 L 229.363281 274.089844 L 213 447.546875 L 196.636719 274.089844 L 81.273438 405 L 169.636719 255.273438 L 0.273438 292.910156 L 159.816406 223.363281 L 0.273438 154.636719 L 169.636719 192.273438 L 81.273438 42.546875 L 196.636719 172.636719 Z M 213 0 " clip-rule="nonzero"/></clipPath><clipPath id="d6bb6224e2"><rect x="0" width="426" y="0" height="448"/></clipPath></defs><g clip-path="url(#90574e800c)"><path fill="#004aad" d="M 850.601562 808.496094 L 1380.886719 749.996094 L 850.601562 691.5 L 1020.417969 479.578125 L 808.496094 649.390625 L 749.996094 119.105469 L 691.5 649.390625 L 479.578125 479.578125 L 649.390625 691.5 L 119.105469 749.996094 L 649.390625 808.496094 L 479.578125 1020.417969 L 691.5 850.601562 L 749.996094 1380.886719 L 808.496094 850.601562 L 1020.417969 1020.417969 L 850.601562 808.496094 " fill-opacity="1" fill-rule="nonzero"/></g><g clip-path="url(#3d439dc642)"><g clip-path="url(#47db71b7a4)"><g transform="matrix(1, 0, 0, 1, 195, 150)"><g clip-path="url(#fab4306319)"><g clip-path="url(#294112a241)"><g clip-path="url(#91b56ca0c7)"><path fill="#1800ad" d="M 0.886719 0 L 1109.113281 0 L 1109.113281 1173.160156 L 0.886719 1173.160156 Z M 0.886719 0 " fill-opacity="1" fill-rule="nonzero"/></g></g></g></g></g></g><g clip-path="url(#dbd6e82ba1)"><g clip-path="url(#b2ca37fc4f)"><g transform="matrix(1, 0, 0, 1, 497, 497)"><g clip-path="url(#8f14ac0bce)"><g clip-path="url(#1a97adfc2a)"><g clip-path="url(#868d582ffa)"><path fill="#004aad" d="M 0.324219 0.324219 L 505.675781 0.324219 L 505.675781 505.675781 L 0.324219 505.675781 Z M 0.324219 0.324219 " fill-opacity="1" fill-rule="nonzero"/></g></g></g></g></g></g><g clip-path="url(#dcb0d17d84)"><g clip-path="url(#7c4bc34a1d)"><g transform="matrix(1, 0, 0, 1, 578, 578)"><g clip-path="url(#09cd6089f2)"><g clip-path="url(#8d1268cbb3)"><g clip-path="url(#74997e7888)"><path fill="#1800ad" d="M 0.847656 0.847656 L 343.152344 0.847656 L 343.152344 343.152344 L 0.847656 343.152344 Z M 0.847656 0.847656 " fill-opacity="1" fill-rule="nonzero"/></g></g></g></g></g></g><g clip-path="url(#e2968f4aa4)"><g clip-path="url(#60eb0caf36)"><g transform="matrix(1, 0, 0, 1, 634, 634)"><g clip-path="url(#03a9f9a3cf)"><g clip-path="url(#55eeb0d4d5)"><g clip-path="url(#e4a873949c)"><path fill="#004aad" d="M 0.429688 0.429688 L 231.570312 0.429688 L 231.570312 231.570312 L 0.429688 231.570312 Z M 0.429688 0.429688 " fill-opacity="1" fill-rule="nonzero"/></g></g></g></g></g></g><g clip-path="url(#198d76d0ac)"><g clip-path="url(#4e40a8c1cf)"><g transform="matrix(1, 0, 0, 1, 537, 525)"><g clip-path="url(#d6bb6224e2)"><g clip-path="url(#cd3cf4be36)"><g clip-path="url(#5739f2372f)"><path fill="#004aad" d="M 0.273438 0 L 425.726562 0 L 425.726562 450.382812 L 0.273438 450.382812 Z M 0.273438 0 " fill-opacity="1" fill-rule="nonzero"/></g></g></g></g></g></g></svg>