<!-- created by svgstack.com | Attribution is required. --><svg width="128" height="128" viewBox="0 0 128 128" fill="none" xmlns="http://www.w3.org/2000/svg"><path d="M111.887 58.4941L84.9863 85.6914L123.33 85.4775L127 94.1348L85 94.2383L84.9863 94.2236H84.9932C81.5098 94.2236 78.3852 92.1612 77.0332 88.9746C75.6746 85.7603 76.3774 82.0906 78.833 79.6006L108.218 49.8379L111.887 58.4941ZM49.1738 79.5801C51.6292 82.0632 52.3395 85.7467 50.9736 88.9541C49.6218 92.1478 46.4832 94.2031 43.0137 94.2031L1.01367 94.1064L1 94.1201L4.66992 85.4639L43.0137 85.6777L16.1201 58.4736L19.7891 49.8164L49.1738 79.5801ZM63.9961 67.2402L78.7021 32H88.1455L71.915 70.5371C70.5699 73.7377 67.4385 75.8144 63.9414 75.8145C60.4443 75.8145 57.306 73.7378 55.9678 70.5234L39.834 32H49.2764L63.9961 67.2402Z" fill="white"/></svg> 